<svg id="Layer_1" data-name="Layer 1" xmlns="http://www.w3.org/2000/svg" xmlns:xlink="http://www.w3.org/1999/xlink" width="6.85754in" height="0.79909in" viewBox="0 0 493.74319 57.53477">
  <defs>
    <linearGradient id="linear-gradient" x1="25.70935" y1="57.49988" x2="25.70935" y2="0.0814" gradientUnits="userSpaceOnUse">
      <stop offset="0" stop-color="#ef4a83"/>
      <stop offset="0.99438" stop-color="#ee3426"/>
    </linearGradient>
    <linearGradient id="linear-gradient-2" x1="25.68901" y1="57.64819" x2="25.68901" y2="0.18452" xlink:href="#linear-gradient"/>
  </defs>
  <title>HF_Horizontal_Lockup_Black_Text</title>
  <path d="M351.20859,13.3725h23.96628v7.10573H360.124v5.47315h12.88815v7.28245H360.124v11.0343h-8.91538Z"/>
  <path d="M375.427,28.77614c0-10.68121,4.98752-16.066,15.58036-16.066,10.99013,0,15.53618,5.429,15.53618,16.11018,0,10.725-5.03169,16.10982-15.62454,16.10982C380.01724,44.93014,375.427,39.45735,375.427,28.77614Zm8.95992.08836c0,6.44371,2.20694,8.82738,6.53208,8.82738,4.36969,0,6.53244-2.33948,6.53244-8.91574,0-6.44408-2.16275-8.78319-6.48826-8.78319C386.54968,19.993,384.38692,22.28788,384.38692,28.8645Z"/>
  <path d="M408.67941,13.3725h16.46292c7.01772,0,10.54867,4.32515,10.54867,10.59285,0,4.41351-1.76548,7.54718-4.81079,9.22429l5.03134,11.07849h-9.75412l-3.884-9.401h-4.855v9.401h-8.739Zm8.739,7.23827v7.28245h5.78171a3.34517,3.34517,0,0,0,3.61931-3.70732c0-1.9422-.97092-3.57513-3.48677-3.57513Z"/>
  <path d="M437.04519,28.77614c0-11.03431,5.20806-16.066,15.66872-16.066,6.31153,0,10.4603,2.07474,12.44633,7.01807l-7.14991,3.619c-1.236-2.51585-2.60421-3.31-5.38478-3.31-4.32551,0-6.62044,2.16239-6.62044,8.82737,0,6.841,2.42748,9.00374,6.79716,9.00374,2.60385,0,4.98716-1.27983,5.38443-4.3255h-5.38443V27.01066h13.37307V44.26813H460.1289l-.52982-3.48676c-1.58875,2.56-4.45769,4.14877-8.51846,4.14877C442.47416,44.93014,437.04519,39.6779,437.04519,28.77614Z"/>
  <path d="M468.86935,13.3725h24.40774v6.841H477.56418V25.201h13.506v6.92935h-13.506V37.383h16.154v6.88517H468.86935Z"/>
  <path d="M90.22937,32.65565H79.1226V44.247H70.22V13.39555H79.1226V25.1189H90.22937V13.39555h8.903V44.247h-8.903Z"/>
  <path d="M101.86592,28.77716c0-10.66594,4.98039-16.043,15.5581-16.043,10.97441,0,15.514,5.42121,15.514,16.08716,0,10.70971-5.0245,16.0868-15.60221,16.0868C106.4496,44.90808,101.86592,39.44311,101.86592,28.77716Zm8.94712.08824c0,6.4345,2.20342,8.81476,6.52274,8.81476,4.36344,0,6.5231-2.33614,6.5231-8.903,0-6.43486-2.15966-8.77064-6.479-8.77064C112.9727,20.00652,110.813,22.29818,110.813,28.8654Z"/>
  <path d="M143.73665,27.41092l.22059,16.83609H135.583V13.39555h6.61134l13.97125,18.29057-.17611-18.29057h8.37393V44.247h-7.49264Z"/>
  <path d="M168.21435,13.39555H191.118v6.83121H176.89675v4.98038h13.48667v6.91945H176.89675v5.24509h15.39633V44.247H168.21435Z"/>
  <path d="M262.1533,13.39555H287.001v6.83121H270.8357v4.98038h13.48667v6.91945H270.8357v5.24509h16.13091V44.247H262.1533Z"/>
  <path d="M312.80865,36.93086V44.247H289.61158V13.39555h8.94711V36.93086Z"/>
  <path d="M337.99932,36.93086V44.247H314.80225V13.39555h8.94711V36.93086Z"/>
  <path d="M244.19881,13.43931l4.46006,18.12032,3.92822-18.16408H261.314l-7.904,30.85146h-8.72616l-4.452-17.73245L235.69217,44.247h-8.50593s-4.0729-16.0288-5.974-23.47493c-.48393-1.89548-.728-3.29353-.82746-3.6707-.27673-1.04957-.615-3.70583-.615-3.70583h8.59149l3.69238,17.95908,4.56462-17.91532Z"/>
  <path d="M190.967,13.39555h9.789l5.94992,12.12006,5.86168-12.12006h8.2956a48.81293,48.81293,0,0,1-1.70835,4.765c-.67319,1.50793-8.30609,15.28852-8.30609,15.28852V44.247h-8.90263V33.18436Z"/>
  <g>
    <path d="M46.95583,14.917,27.15025,3.48206a2.89106,2.89106,0,0,0-2.882,0L4.46287,14.917A2.79128,2.79128,0,0,0,3.071,17.32757V40.2537a2.79124,2.79124,0,0,0,1.39185,2.41061L24.26828,54.0992a2.89038,2.89038,0,0,0,2.882-.00017L46.95583,42.66431a2.79122,2.79122,0,0,0,1.39185-2.41061V17.32739A2.79075,2.79075,0,0,0,46.95583,14.917Zm-4.215,9.87227c-.10476.068-16.13269,9.303-16.812,9.69424a.60314.60314,0,0,1-.28167.07236.46987.46987,0,0,1-.25993-.07553l-4.13209-2.47735a.27.27,0,0,1-.14226-.22607.25163.25163,0,0,1,.14438-.20425l2.31324-1.38253a.48625.48625,0,0,1,.22643-.05634.40574.40574,0,0,1,.193.04612l1.485.90132a.626.626,0,0,0,.25636.097.41369.41369,0,0,0,.20883-.06886L36.8193,24.704a.15184.15184,0,0,0-.00071-.26235l-10.71739-6.214a1.07983,1.07983,0,0,0-.41729-.15214.76055.76055,0,0,0-.40445.14844L14.40977,24.45311a.15184.15184,0,0,0,0,.26357l1.47444.80148c.13241.06833.16339.14808.16585.20284.00283.05758-.02288.14456-.162.23366l-2.36167,1.379a.43949.43949,0,0,1-.20371.05335.42613.42613,0,0,1-.193-.049L8.64409,24.81194a.25139.25139,0,0,1-.00089-.436l16.76339-9.68a.76482.76482,0,0,1,.306-.07784.6913.6913,0,0,1,.31112.09438l16.71657,9.64317a.25512.25512,0,0,1,.12025.215A.25852.25852,0,0,1,42.74081,24.78922Z" fill="none"/>
    <path d="M48.46442,12.304,28.65884.86932a5.91482,5.91482,0,0,0-5.89915,0L2.95428,12.304A5.81669,5.81669,0,0,0,.054,17.32739V40.2537a5.817,5.817,0,0,0,2.90027,5.02353l19.80541,11.4349a5.91593,5.91593,0,0,0,5.89915,0l19.80558-11.4349a5.81669,5.81669,0,0,0,2.90027-5.02336V17.32739A5.81669,5.81669,0,0,0,48.46442,12.304ZM48.34768,40.2537a2.79122,2.79122,0,0,1-1.39185,2.41061L27.15025,54.099a2.89038,2.89038,0,0,1-2.882.00017L4.46287,42.66431A2.79124,2.79124,0,0,1,3.071,40.2537V17.32757A2.79128,2.79128,0,0,1,4.46287,14.917L24.26828,3.48206a2.89106,2.89106,0,0,1,2.882,0L46.95583,14.917a2.79075,2.79075,0,0,1,1.39185,2.41044Z" fill="url(#linear-gradient)"/>
    <path d="M42.74029,24.35573,26.02372,14.71256a.58868.58868,0,0,0-.31757-.09438.57016.57016,0,0,0-.29956.07784L8.6432,24.376a.25139.25139,0,0,0,.00089.436l4.48563,2.52612a.42613.42613,0,0,0,.193.049.43949.43949,0,0,0,.20371-.05335l2.36167-1.379c.1391-.0891.16481-.17608.162-.23366-.00246-.05476-.03344-.13451-.16585-.20284l-1.47444-.80148a.15184.15184,0,0,1,0-.26357L25.27946,18.224a.76055.76055,0,0,1,.40445-.14844,1.07983,1.07983,0,0,1,.41729.15214l10.71739,6.214a.15184.15184,0,0,1,.00071.26235L25.9401,31.10936a.34348.34348,0,0,1-.20883.06886.626.626,0,0,1-.25636-.097l-1.485-.90132a.40574.40574,0,0,0-.193-.04612.48625.48625,0,0,0-.22643.05634l-2.31324,1.38253a.25163.25163,0,0,0-.14438.20425.27.27,0,0,0,.14226.22607l4.13209,2.47735a.46987.46987,0,0,0,.25993.07553.60314.60314,0,0,0,.28167-.07236c.67929-.39124,16.70722-9.62628,16.812-9.69424a.25852.25852,0,0,0,.11973-.2185A.25512.25512,0,0,0,42.74029,24.35573Z" fill="url(#linear-gradient-2)"/>
    <path d="M42.73413,32.77045l-4.48582-2.52613a.42618.42618,0,0,0-.193-.04894.43977.43977,0,0,0-.20371.05335l-2.3615,1.379c-.13927.08926-.1648.17624-.16215.23364.00263.05493.03344.13453.16585.20284l1.47444.80167a.15193.15193,0,0,1,.00018.26357L26.18465,39.30892l-.08608.04948a.75912.75912,0,0,1-.40428.14842,1.07693,1.07693,0,0,1-.41746-.15212l-.02554-.01374L14.55944,33.14089a.152.152,0,0,1-.00071-.26234l10.8792-6.40536a.34887.34887,0,0,1,.209-.06885.51788.51788,0,0,1,.25636.097l1.48484.90113a.40585.40585,0,0,0,.193.04631.48614.48614,0,0,0,.22643-.05635l2.31324-1.38252a.25192.25192,0,0,0,.14438-.20425.2698.2698,0,0,0-.14226-.22607L25.9908,23.10227a.50136.50136,0,0,0-.27591-.07571.51163.51163,0,0,0-.26167.0792c-.16987.09634-16.71124,9.6196-16.816,9.68758a.2583.2583,0,0,0-.11974.2185.255.255,0,0,0,.12026.21481L25.35431,42.87a.6946.6946,0,0,0,.31112.09436.76734.76734,0,0,0,.306-.07782l16.76339-9.68a.25163.25163,0,0,0-.0007-.43612Z" fill="url(#linear-gradient-2)"/>
  </g>
</svg>
